<svg width="138" height="34" viewBox="0 0 138 34" fill="none" xmlns="http://www.w3.org/2000/svg">
<path d="M134.85 -0.4375C136.258 -0.6025 137.316 -0.7266 138 -1L69.0018 -1.00001C69.0018 -1.00001 69.0002 5.36129 69 14.4868C69 13.2739 68.9999 12.1108 68.9999 11.0044L68.9982 -1.00001L3.0598e-06 -1.00001C0.684003 -0.726612 1.742 -0.602512 3.15 -0.437512C6.89 0.000488532 13.097 0.727089 21.322 5.31249C26.985 8.60989 31.477 13.0229 35.93 17.3975C44.4526 25.769 52.8315 34 68.9982 34C68.9994 28.729 69 23.5708 69 18.9048C69 23.5713 69.0006 28.7285 69.0018 34C85.1686 34 93.5474 25.769 102.07 17.3975C106.523 13.0229 111.015 8.6099 116.678 5.3125C124.903 0.727099 131.11 0.000499391 134.85 -0.4375Z" fill="white"/>
</svg>
