<svg width="25" height="24" viewBox="0 0 25 24" fill="none" xmlns="http://www.w3.org/2000/svg">
<path d="M12.8125 6.0415C16.1348 6.0415 18.877 8.78369 18.877 12.106C18.877 15.481 16.1348 18.1704 12.8125 18.1704C9.4375 18.1704 6.74805 15.481 6.74805 12.106C6.74805 8.78369 9.4375 6.0415 12.8125 6.0415ZM12.8125 16.061C14.9746 16.061 16.7148 14.3208 16.7148 12.106C16.7148 9.94385 14.9746 8.20361 12.8125 8.20361C10.5977 8.20361 8.85742 9.94385 8.85742 12.106C8.85742 14.3208 10.6504 16.061 12.8125 16.061ZM20.5117 5.83057C20.5117 6.62158 19.8789 7.25439 19.0879 7.25439C18.2969 7.25439 17.6641 6.62158 17.6641 5.83057C17.6641 5.03955 18.2969 4.40674 19.0879 4.40674C19.8789 4.40674 20.5117 5.03955 20.5117 5.83057ZM24.5195 7.25439C24.625 9.20557 24.625 15.0591 24.5195 17.0103C24.4141 18.9087 23.9922 20.5435 22.6211 21.9673C21.25 23.3384 19.5625 23.7603 17.6641 23.8657C15.7129 23.9712 9.85938 23.9712 7.9082 23.8657C6.00977 23.7603 4.375 23.3384 2.95117 21.9673C1.58008 20.5435 1.1582 18.9087 1.05273 17.0103C0.947266 15.0591 0.947266 9.20557 1.05273 7.25439C1.1582 5.35596 1.58008 3.66846 2.95117 2.29736C4.375 0.926268 6.00977 0.504393 7.9082 0.398924C9.85938 0.293455 15.7129 0.293455 17.6641 0.398924C19.5625 0.504393 21.25 0.926268 22.6211 2.29736C23.9922 3.66846 24.4141 5.35596 24.5195 7.25439ZM21.9883 19.0669C22.6211 17.5376 22.4629 13.8462 22.4629 12.106C22.4629 10.4185 22.6211 6.72705 21.9883 5.14502C21.5664 4.14307 20.7754 3.29932 19.7734 2.93017C18.1914 2.29736 14.5 2.45557 12.8125 2.45557C11.0723 2.45557 7.38086 2.29736 5.85156 2.93017C4.79688 3.35205 4.00586 4.14307 3.58398 5.14502C2.95117 6.72705 3.10938 10.4185 3.10938 12.106C3.10938 13.8462 2.95117 17.5376 3.58398 19.0669C4.00586 20.1216 4.79688 20.9126 5.85156 21.3345C7.38086 21.9673 11.0723 21.8091 12.8125 21.8091C14.5 21.8091 18.1914 21.9673 19.7734 21.3345C20.7754 20.9126 21.6191 20.1216 21.9883 19.0669Z" fill="#2E2320"/>
</svg>
