<svg width="57" height="57" viewBox="0 0 57 57" fill="none" xmlns="http://www.w3.org/2000/svg">
<path d="M21.1828 25.752C21.1828 27.6085 21.9203 29.389 23.233 30.7018C24.5458 32.0145 26.3263 32.752 28.1828 32.752C30.0393 32.752 31.8198 32.0145 33.1325 30.7018C34.4453 29.389 35.1828 27.6085 35.1828 25.752C35.1828 23.8955 34.4453 22.115 33.1325 20.8023C31.8198 19.4895 30.0393 18.752 28.1828 18.752C26.3263 18.752 24.5458 19.4895 23.233 20.8023C21.9203 22.115 21.1828 23.8955 21.1828 25.752Z" stroke="#EB3300" stroke-width="4" stroke-linecap="round" stroke-linejoin="round"/>
<path d="M41.3825 38.9516L31.4821 48.8519C30.6071 49.7261 29.4208 50.2171 28.184 50.2171C26.9471 50.2171 25.7608 49.7261 24.8858 48.8519L14.9831 38.9516C12.3726 36.341 10.5949 33.0149 9.87473 29.3939C9.15455 25.773 9.52427 22.0198 10.9371 18.609C12.35 15.1981 14.7425 12.2828 17.8122 10.2318C20.8819 8.18069 24.4909 7.08594 28.1828 7.08594C31.8747 7.08594 35.4836 8.18069 38.5533 10.2318C41.623 12.2828 44.0156 15.1981 45.4284 18.609C46.8413 22.0198 47.211 25.773 46.4908 29.3939C45.7707 33.0149 43.9929 36.341 41.3825 38.9516Z" stroke="#EB3300" stroke-width="4" stroke-linecap="round" stroke-linejoin="round"/>
</svg>
