<svg width="65" height="56" viewBox="0 0 65 56" fill="none" xmlns="http://www.w3.org/2000/svg">
<path d="M63.9488 27.7809C63.2376 23.4524 61.5356 19.4715 59.2526 15.7453C56.1818 10.7291 52.2068 6.82005 47.1554 4.21279C45.8195 3.52049 44.4052 2.92099 42.9154 2.41609C39.0779 1.11337 35.1311 0.838639 31.1215 0.77314C26.1766 0.691265 21.5003 1.8366 17.2931 4.21188C17.1228 4.30831 16.9516 4.40656 16.7813 4.50754C12.5067 7.04748 8.98518 10.1478 6.28872 13.8267C3.33545 17.8577 1.36661 22.5837 0.470523 28.0329C-0.236148 32.334 -0.175134 36.6006 0.846625 40.8427C1.70811 44.4151 3.25532 47.7047 5.14038 50.8359C5.50373 51.4372 5.88894 52.0286 6.28963 52.6099C6.7313 53.2549 7.19209 53.8853 7.6629 54.5066C8.21749 55.2417 8.82035 55.3345 9.31574 54.9588C9.80295 54.5867 9.79293 54.0509 9.28114 53.2439C9.252 53.2012 9.21921 53.1593 9.19281 53.1166C8.32586 51.7247 7.4152 50.3574 6.59925 48.9364C6.49453 48.7536 6.39162 48.5707 6.29054 48.386C2.85189 42.1235 1.74818 35.4198 2.88923 28.3449C3.46295 24.787 4.55391 21.4174 6.29054 18.3153C6.82692 17.3546 7.42704 16.4185 8.09273 15.5106C12.3 9.7739 17.518 5.93853 23.6577 4.21188C25.8733 3.58963 28.2083 3.2403 30.6579 3.17662C32.512 3.27942 33.8188 3.32854 35.1238 3.42497C36.8358 3.55233 38.4841 3.81524 40.0668 4.21097C45.5627 5.58283 50.2753 8.54942 54.152 12.9807C58.6816 18.1588 61.3435 24.2858 61.8552 31.2151C62.2969 37.2165 61.1604 42.9077 58.1106 48.1477C57.0278 50.0081 55.844 51.8084 54.7148 53.6424C54.458 54.0609 54.2157 54.4739 54.7439 54.926C55.2703 55.3782 55.7511 55.2999 56.1727 54.8723C56.6171 54.4184 57.0397 53.9217 57.373 53.3813C58.9102 50.8787 60.5257 48.4106 61.8971 45.817C63.3952 42.9814 63.9643 39.8547 64.2175 36.6634C64.4561 33.6886 64.4315 30.7157 63.9507 27.7791L63.9488 27.7809Z" fill="#414141"/>
<path d="M55.0287 50.7084L46.2918 49.2319C46.4056 48.8189 46.5741 48.2531 46.5413 48.2513C46.6342 47.76 46.7116 47.3506 46.7872 46.9413C47.1214 45.1355 48.145 43.6726 49.1194 42.178C49.3316 41.855 49.47 41.412 49.4573 41.0299C49.4172 39.88 49.2596 38.7356 49.195 37.5848C49.0793 35.5106 48.8171 33.4829 48.033 31.5261C47.432 30.0205 47.0559 28.4276 46.4821 26.9074C46.2235 26.2233 45.8583 25.4864 45.3247 25.0143C43.1983 23.133 42.0736 20.6713 41.122 18.1059C40.9016 17.5073 40.6512 17.2135 40.0165 17.1188C38.1669 16.8441 36.341 16.4848 34.904 15.1165C34.7401 14.9592 34.3622 14.9301 34.1072 14.9755C33.3659 15.1165 32.6429 15.3576 31.9007 15.505C29.8644 15.908 28.085 16.9223 26.2209 17.762C25.078 18.276 24.3003 18.9356 23.9097 20.1045C23.5754 21.1016 22.8925 21.763 21.9235 22.2042C20.7806 22.7273 19.6797 23.3422 18.5741 23.9445C18.3637 24.0582 18.1097 24.2656 18.0614 24.4739C17.6534 26.2542 16.7182 27.7589 15.6718 29.2136C15.1528 29.9359 14.6546 30.6518 14.7976 31.6443C14.8777 32.2011 14.8586 32.8051 14.7302 33.3528C14.335 35.0531 13.8879 36.7406 13.4171 38.4227C13.2595 38.983 13.2823 39.4052 13.581 39.9574C14.3459 41.3783 15.2056 42.8202 15.558 44.3613C15.8103 45.4575 15.9323 46.5401 16.5752 47.4953C16.689 47.6636 16.741 47.8728 16.8712 48.1858L17.372 49.4066L9.67334 50.7075H55.0278L55.0287 50.7084ZM34.9896 31.7571C34.1573 32.4649 33.3331 33.1818 32.509 33.8959C32.2312 34.137 31.9517 34.3789 31.673 34.6182C31.4499 34.8111 31.2277 35.0048 31.0028 35.1931C30.7797 35.3842 30.5556 35.5752 30.3307 35.7645C30.1313 35.9328 29.9318 36.0983 29.7315 36.2666C29.3909 36.5477 29.0485 36.8288 28.7061 37.1045C28.4475 37.3119 28.187 37.5184 27.9266 37.7213C27.6661 37.925 27.4029 38.1261 27.1388 38.3262C25.9049 39.2587 24.2685 39.6762 22.785 40.2512C22.2805 40.4468 22.0492 40.6706 21.8206 41.1891C21.3207 42.3226 20.6085 43.3615 19.9966 44.4468C19.5449 45.2483 19.116 46.0652 18.677 46.8776C18.3993 46.481 18.0068 45.9642 17.6726 45.4148C17.5842 45.2701 17.6115 44.9781 17.7017 44.8162C18.6898 43.0386 19.7297 41.2919 20.6859 39.497C20.9992 38.9094 21.3097 38.5291 21.9955 38.3171C23.0901 37.9787 24.1555 37.5047 25.1746 36.9735C25.5989 36.7506 26.026 36.5286 26.4504 36.3057C27.1498 35.9364 27.8501 35.567 28.5476 35.195C30.7123 34.0433 32.8623 32.8861 34.9915 31.7471V31.7571H34.9896ZM43.5553 26.5253C43.6545 26.2988 44.0571 26.2024 44.3202 26.045C44.4004 26.1269 44.4823 26.2106 44.5616 26.2925C43.7401 27.9463 42.9187 29.6011 42.0964 31.255C41.968 31.1895 41.8405 31.1249 41.7121 31.0621C42.3195 29.5465 42.9033 28.0227 43.5553 26.5253ZM41.357 36.343C41.3132 37.3446 41.3105 38.6082 41.1675 39.8546C41.1293 40.1948 40.7195 40.5596 40.3917 40.7843C39.6413 41.2919 38.7333 41.6076 38.0868 42.2116C37.4921 42.7684 37.1561 43.599 36.7417 44.254C36.7773 42.9103 37.2736 41.6094 38.1141 40.465C39.1941 38.9994 40.3625 37.5994 41.356 36.3421L41.357 36.343ZM15.4032 39.2214C15.4032 38.7347 15.3467 38.4527 15.4114 38.2034C15.9596 36.0792 16.5688 33.9796 16.5397 31.738C16.5297 31.0457 16.9896 30.3189 17.3256 29.6557C17.6662 28.9816 18.2399 28.4085 18.504 27.7143C19.2963 25.632 20.9792 24.5085 22.8478 23.6524C24.0016 23.1257 24.8212 22.357 25.3357 21.2653C25.8257 20.2283 26.597 19.5478 27.6133 19.0948C29.2589 18.3597 30.9017 17.6192 32.5491 16.8923C32.7631 16.7977 33.0026 16.7331 33.2339 16.7204C33.7193 16.6976 34.0034 16.966 33.6965 17.3899C32.5992 18.9137 31.8624 20.6567 30.0803 21.7202C28.2544 22.8119 26.6954 24.3502 25.0261 25.7002C24.8704 25.8267 24.7575 26.005 24.6664 26.2297C27.1079 25.6857 29.2743 24.544 31.429 23.3304C33.5954 22.1087 35.8274 21.0088 38.0312 19.8544C38.0759 19.9044 38.1196 19.9553 38.1633 20.0072C37.9739 20.1755 37.7935 20.3538 37.5959 20.5112C35.5661 22.1314 33.5062 23.717 31.5209 25.3873C31.0774 25.7612 30.8024 26.4016 30.5939 26.972C30.0284 28.5131 29.5475 30.0851 29.0157 31.6389C28.9292 31.889 28.7471 32.1028 28.5194 32.3021C28.9456 30.398 29.1978 28.5085 28.9101 26.4498C28.1961 26.9493 27.6033 27.4096 26.9667 27.7999C25.1363 28.9252 23.3123 30.0587 21.4381 31.1058C20.8325 31.4433 20.5448 31.8044 20.3681 32.4831C19.6787 35.1113 18.8883 37.7122 18.1297 40.3212C18.1106 40.3867 18.0414 40.4368 17.9949 40.4932C17.9421 40.4886 17.892 40.485 17.8392 40.4804C18.0641 38.1779 18.2873 35.8745 18.5095 33.572C17.4941 35.4051 16.9122 37.422 15.3996 39.2214H15.4032Z" fill="#414141"/>
</svg>
