<svg width="30" height="22" viewBox="0 0 30 22" fill="none" xmlns="http://www.w3.org/2000/svg">
<path d="M28.4512 4.19775C29.084 6.4126 29.084 11.1587 29.084 11.1587C29.084 11.1587 29.084 15.8521 28.4512 18.1196C28.1348 19.3853 27.1328 20.3345 25.9199 20.6509C23.6523 21.231 14.6875 21.231 14.6875 21.231C14.6875 21.231 5.66992 21.231 3.40234 20.6509C2.18945 20.3345 1.1875 19.3853 0.871094 18.1196C0.238281 15.8521 0.238281 11.1587 0.238281 11.1587C0.238281 11.1587 0.238281 6.4126 0.871094 4.19775C1.1875 2.93213 2.18945 1.93017 3.40234 1.61377C5.66992 0.980956 14.6875 0.980956 14.6875 0.980956C14.6875 0.980956 23.6523 0.980956 25.9199 1.61377C27.1328 1.93017 28.1348 2.93213 28.4512 4.19775ZM11.7344 15.4302L19.2227 11.1587L11.7344 6.88721V15.4302Z" fill="#2E2320"/>
</svg>
